<!-- Generated by IcoMoon.io -->
<svg version="1.1" xmlns="http://www.w3.org/2000/svg" width="31" height="32" viewBox="0 0 31 32">
<title>warning</title>
<path d="M29.092 15.793c0 7.495-6.081 13.576-13.576 13.576s-13.576-6.081-13.576-13.576c0-7.495 6.081-13.576 13.576-13.576s13.576 6.081 13.576 13.576zM13.685 6.861l0.327 11.503h3.030l0.315-11.503h-3.673zM13.212 22.158c0 0.323 0.061 0.626 0.182 0.909s0.289 0.529 0.503 0.739c0.214 0.21 0.463 0.376 0.745 0.497s0.586 0.182 0.909 0.182c0.315 0 0.612-0.061 0.891-0.182s0.523-0.287 0.733-0.497c0.21-0.21 0.376-0.457 0.497-0.739s0.182-0.586 0.182-0.909c0-0.315-0.061-0.612-0.182-0.891s-0.287-0.523-0.497-0.733c-0.21-0.21-0.455-0.376-0.733-0.497s-0.576-0.182-0.891-0.182c-0.323 0-0.626 0.061-0.909 0.182s-0.531 0.287-0.745 0.497c-0.214 0.21-0.382 0.455-0.503 0.733s-0.182 0.576-0.182 0.891z"></path>
</svg>
